<svg width="243" height="161" viewBox="0 0 243 161" fill="none" xmlns="http://www.w3.org/2000/svg">
<path fill-rule="evenodd" clip-rule="evenodd" d="M116.083 22.6207C141.487 17.2147 164.826 -5.93011 188.415 1.79889C211.192 9.26173 196.68 35.9407 206.354 52.1981C215.078 66.8585 244.949 75.616 241.837 91.574C238.711 107.604 206.153 111.704 192.194 124.811C177.429 138.675 173.944 150.775 151 157C128.269 163.168 113.302 160.67 93.2575 151.657C78.124 144.852 69.5486 133.791 57.6625 124.363C46.2396 115.303 11.9223 116.95 4.50017 106C-4.68953 92.4431 2.16463 68.4977 10.1152 54.2191C18.0515 39.9662 35.5002 28.4664 63.0978 28.4664C79.5002 28.4664 98.5591 26.3498 116.083 22.6207Z" fill="#E8E7FA"/>
</svg>
