<svg width="24" height="24" viewBox="0 0 24 24" fill="none" xmlns="http://www.w3.org/2000/svg">
<path d="M14 2H9C4 2 2 4 2 9V15C2 20 4 22 9 22H15C20 22 22 20 22 15V10" fill="#F9F9FB"/>
<path d="M14 2H9C4 2 2 4 2 9V15C2 20 4 22 9 22H15C20 22 22 20 22 15V10C22 4 21.5 2 14 2Z" stroke="#181925" stroke-width="1.4" stroke-linecap="round" stroke-linejoin="round"/>
<path d="M7 13H12" stroke="#181925" stroke-width="1.4" stroke-linecap="round" stroke-linejoin="round"/>
<path d="M7 17H16" stroke="#181925" stroke-width="1.4" stroke-linecap="round" stroke-linejoin="round"/>
<path d="M19 9C21.2091 9 23 7.20914 23 5C23 2.79086 21.2091 1 19 1C16.7909 1 15 2.79086 15 5C15 7.20914 16.7909 9 19 9Z" fill="#FFEBA5" stroke="#181925" stroke-width="1.4" stroke-linecap="round" stroke-linejoin="round"/>
</svg>
