<svg width="24" height="24" viewBox="0 0 24 24" fill="none" xmlns="http://www.w3.org/2000/svg">
<path d="M17.5172 11.5555C17.5078 9.95703 18.232 8.75234 19.6945 7.86406C18.8766 6.69219 17.6391 6.04766 16.0078 5.92344C14.4633 5.80156 12.7734 6.82344 12.1547 6.82344C11.5008 6.82344 10.0055 5.96563 8.82891 5.96563C6.40078 6.00313 3.82031 7.90156 3.82031 11.7641C3.82031 12.9055 4.02891 14.0844 4.44609 15.2984C5.00391 16.8969 7.01484 20.8133 9.1125 20.75C10.2094 20.7242 10.9852 19.9719 12.4125 19.9719C13.7977 19.9719 14.5148 20.75 15.7383 20.75C17.8547 20.7195 19.6734 17.1594 20.2031 15.5563C17.3648 14.218 17.5172 11.6375 17.5172 11.5555ZM15.0539 4.40703C16.2422 2.99609 16.1344 1.71172 16.0992 1.25C15.0492 1.31094 13.8352 1.96484 13.1437 2.76875C12.382 3.63125 11.9344 4.69766 12.0305 5.9C13.1648 5.98672 14.2008 5.40313 15.0539 4.40703Z" fill="#181925"/>
</svg>
