<svg width="168" height="153" viewBox="0 0 168 153" fill="none" xmlns="http://www.w3.org/2000/svg">
<path fill-rule="evenodd" clip-rule="evenodd" d="M148.757 70.9856C151.623 88.1332 174.361 104.368 165.436 119.281C156.639 133.98 131.624 120.24 115.63 126.337C101.275 131.81 94.0017 153.722 78.703 152.346C63.604 150.988 59.5495 129.786 47.768 120.234C35.3806 110.189 16.033 109.042 8.17325 95.1571C-0.0519104 80.6263 -2.88696 60.3698 5.81645 46.1212C14.6217 31.7059 36.2869 33.8388 50.8466 25.2952C61.8635 18.8305 68.266 5.87774 80.5208 2.28469C93.616 -1.55479 107.977 -0.461325 120.544 4.86004C133.302 10.2619 145.42 19.314 150.862 32.0685C156.065 44.2622 146.572 57.9075 148.757 70.9856Z" fill="#E8E7FA"/>
<path d="M115.819 70.0164H127.007L139.453 78.1704C141.298 79.3824 143.788 78.0877 143.788 75.8839V70.0164C152.178 70.0164 157.772 64.5071 157.772 56.243V39.7149C157.772 31.4508 152.178 25.9414 143.788 25.9414H115.819C107.429 25.9414 101.835 31.4508 101.835 39.7149V56.243C101.835 64.5071 107.429 70.0164 115.819 70.0164Z" fill="#F9F9FB" stroke="#181925" stroke-width="1.4" stroke-miterlimit="10" stroke-linecap="round" stroke-linejoin="round"/>
<g filter="url(#filter0_d_2017_37010)">
<path d="M65.2008 113.206H82.5099L101.766 125.751C104.622 127.615 108.474 125.623 108.474 122.233V113.206C121.455 113.206 130.11 104.73 130.11 92.0163V66.5884C130.11 53.8744 121.455 45.3984 108.474 45.3984H65.2008C52.219 45.3984 43.5645 53.8744 43.5645 66.5884V92.0163C43.5645 104.73 52.219 113.206 65.2008 113.206Z" fill="#F9F9FB"/>
<path d="M65.2008 113.206H82.5099L101.766 125.751C104.622 127.615 108.474 125.623 108.474 122.233V113.206C121.455 113.206 130.11 104.73 130.11 92.0163V66.5884C130.11 53.8744 121.455 45.3984 108.474 45.3984H65.2008C52.219 45.3984 43.5645 53.8744 43.5645 66.5884V92.0163C43.5645 104.73 52.219 113.206 65.2008 113.206Z" stroke="#181925" stroke-width="1.4" stroke-miterlimit="10" stroke-linecap="round" stroke-linejoin="round"/>
</g>
<rect x="56.437" y="66.4756" width="60.801" height="8.91748" rx="4" fill="#E8E7FA"/>
<rect x="56.437" y="79.4463" width="51.0728" height="8.91748" rx="4" fill="#E8E7FA"/>
<defs>
<filter id="filter0_d_2017_37010" x="42.8643" y="44.6982" width="89.3458" height="84.0668" filterUnits="userSpaceOnUse" color-interpolation-filters="sRGB">
<feFlood flood-opacity="0" result="BackgroundImageFix"/>
<feColorMatrix in="SourceAlpha" type="matrix" values="0 0 0 0 0 0 0 0 0 0 0 0 0 0 0 0 0 0 127 0" result="hardAlpha"/>
<feOffset dx="1.4" dy="1.6"/>
<feComposite in2="hardAlpha" operator="out"/>
<feColorMatrix type="matrix" values="0 0 0 0 0.0941176 0 0 0 0 0.0980392 0 0 0 0 0.145098 0 0 0 1 0"/>
<feBlend mode="normal" in2="BackgroundImageFix" result="effect1_dropShadow_2017_37010"/>
<feBlend mode="normal" in="SourceGraphic" in2="effect1_dropShadow_2017_37010" result="shape"/>
</filter>
</defs>
</svg>
