<svg width="24" height="24" viewBox="0 0 24 24" fill="none" xmlns="http://www.w3.org/2000/svg">
<path d="M20.3326 10.3123C20.441 10.9148 20.5 11.5447 20.5 12.2021C20.5 17.3439 17.1834 21 12.174 21C11.0348 21.0004 9.90675 20.7678 8.85421 20.3156C7.80167 19.8635 6.84532 19.2006 6.03979 18.3648C5.23426 17.529 4.59535 16.5367 4.15956 15.4446C3.72378 14.3525 3.49965 13.182 3.5 12C3.49965 10.818 3.72378 9.64752 4.15956 8.55542C4.59535 7.46333 5.23426 6.47103 6.03979 5.63524C6.84532 4.79944 7.80167 4.13652 8.85421 3.68435C9.90675 3.23219 11.0348 2.99964 12.174 3C14.5161 3 16.4732 3.89415 17.9746 5.346L15.5294 7.88308V7.87668C14.6192 6.97704 13.464 6.51534 12.174 6.51534C9.31206 6.51534 6.98582 9.02408 6.98582 11.9945C6.98582 14.964 9.31206 17.4783 12.174 17.4783C14.7708 17.4783 16.5384 15.9377 16.9014 13.8221H12.174V10.3123H20.3335H20.3326Z" fill="#181925"/>
</svg>
