<svg width="21" height="21" viewBox="0 0 21 21" fill="none" xmlns="http://www.w3.org/2000/svg">
<path d="M10.98 17.88C11.88 19.15 13.35 19.98 15.03 19.98C17.76 19.98 19.98 17.76 19.98 15.03C19.98 13.37 19.16 11.9 17.91 11" fill="#FFEBA5"/>
<path d="M10.98 17.88C11.88 19.15 13.35 19.98 15.03 19.98C17.76 19.98 19.98 17.76 19.98 15.03C19.98 13.37 19.16 11.9 17.91 11L17 10.5L10.5 17L10.98 17.88Z" stroke="#181925" stroke-width="1.5" stroke-linecap="round" stroke-linejoin="round"/>
<path d="M8.99 16.98C13.4028 16.98 16.98 13.4028 16.98 8.99C16.98 4.57724 13.4028 1 8.99 1C4.57724 1 1 4.57724 1 8.99C1 13.4028 4.57724 16.98 8.99 16.98Z" fill="#FFEBA5" stroke="#181925" stroke-width="1.5" stroke-linecap="round" stroke-linejoin="round"/>
<path d="M8.58172 5.63865C8.77913 5.33724 9.22087 5.33724 9.41828 5.63865L10.2738 6.94496C10.3408 7.04721 10.4429 7.12138 10.5608 7.15348L12.0676 7.56348C12.4152 7.65808 12.5517 8.07821 12.3261 8.35909L11.3481 9.57644C11.2715 9.67172 11.2325 9.79174 11.2385 9.91382L11.3141 11.4735C11.3316 11.8334 10.9742 12.0931 10.6374 11.9652L9.17737 11.4113C9.0631 11.3679 8.9369 11.3679 8.82263 11.4113L7.36264 11.9652C7.02577 12.0931 6.6684 11.8334 6.68586 11.4735L6.76153 9.91382C6.76745 9.79174 6.72846 9.67172 6.65191 9.57644L5.67391 8.35909C5.44826 8.07821 5.58476 7.65808 5.93242 7.56348L7.43918 7.15348C7.55711 7.12138 7.65921 7.04721 7.72617 6.94496L8.58172 5.63865Z" fill="#181925"/>
</svg>
