<svg width="18" height="18" viewBox="0 0 18 18" fill="none" xmlns="http://www.w3.org/2000/svg">
<path d="M17.3326 7.31227C17.441 7.91477 17.5 8.5447 17.5 9.20205C17.5 14.3439 14.1834 18 9.17403 18C8.03484 18.0004 6.90675 17.7678 5.85421 17.3156C4.80167 16.8635 3.84532 16.2006 3.03979 15.3648C2.23426 14.529 1.59535 13.5367 1.15956 12.4446C0.723776 11.3525 0.499653 10.182 0.5 9C0.499653 7.818 0.723776 6.64752 1.15956 5.55542C1.59535 4.46333 2.23426 3.47103 3.03979 2.63524C3.84532 1.79944 4.80167 1.13652 5.85421 0.684351C6.90675 0.232186 8.03484 -0.000359965 9.17403 4.18231e-07C11.5161 4.18231e-07 13.4732 0.894149 14.9746 2.346L12.5294 4.88308V4.87668C11.6192 3.97704 10.464 3.51534 9.17403 3.51534C6.31206 3.51534 3.98582 6.02408 3.98582 8.99451C3.98582 11.964 6.31206 14.4783 9.17403 14.4783C11.7708 14.4783 13.5384 12.9377 13.9014 10.8221H9.17403V7.31227H17.3335H17.3326Z" fill="#181925"/>
</svg>
