<svg width="24" height="24" viewBox="0 0 24 24" fill="none" xmlns="http://www.w3.org/2000/svg">
<path d="M7.75 7C7.75 4.65279 9.65279 2.75 12 2.75C14.3472 2.75 16.25 4.65279 16.25 7C16.25 9.34721 14.3472 11.25 12 11.25C9.65279 11.25 7.75 9.34721 7.75 7Z" stroke="#181925" stroke-width="1.5"/>
<path fill-rule="evenodd" clip-rule="evenodd" d="M5.7631 17.4127C6.73327 15.7549 8.62106 14.5 12 14.5C14.1381 14.5 15.6792 15.0025 16.7685 15.7915C17.2301 15.5036 17.9875 15.2954 18.6954 15.5125C17.2896 13.9609 15.0948 13 12 13C8.20325 13 5.76114 14.4462 4.46849 16.655C3.66621 18.0259 3.97328 19.4526 4.7935 20.4474C5.58033 21.4018 6.84808 22 8.16796 22H15.55C15.5797 21.5867 15.5127 21.0567 14.8087 20.5H8.16796C7.2809 20.5 6.44327 20.0905 5.95086 19.4932C5.46615 18.9053 5.32701 18.1578 5.7631 17.4127Z" fill="#181925"/>
<path d="M19.2998 17.8L16.7998 20.3" stroke="#181925" stroke-linecap="round" stroke-linejoin="round"/>
<path d="M19.2998 20.3L16.7998 17.8" stroke="#181925" stroke-linecap="round" stroke-linejoin="round"/>
<circle cx="18" cy="19" r="3.4" stroke="#181925" stroke-width="1.2"/>
</svg>
