<svg width="24" height="25" viewBox="0 0 24 25" fill="none" xmlns="http://www.w3.org/2000/svg">
<path d="M19.7897 15.4301C17.7297 17.4801 14.7797 18.1101 12.1897 17.3001L7.47966 22.0001C7.13966 22.3501 6.46966 22.5601 5.98966 22.4901L3.80966 22.1901C3.08966 22.0901 2.41966 21.4101 2.30966 20.6901L2.00966 18.5101C1.93966 18.0301 2.16966 17.3601 2.49966 17.0201L7.19966 12.3201C6.39966 9.72007 7.01966 6.77007 9.07966 4.72007C12.0297 1.77007 16.8197 1.77007 19.7797 4.72007C22.7397 7.67007 22.7397 12.4801 19.7897 15.4301Z" stroke="#181925" stroke-width="1.5" stroke-miterlimit="10" stroke-linecap="round" stroke-linejoin="round"/>
<path d="M14.5 11.5C15.3284 11.5 16 10.8284 16 10C16 9.17157 15.3284 8.5 14.5 8.5C13.6716 8.5 13 9.17157 13 10C13 10.8284 13.6716 11.5 14.5 11.5Z" stroke="#181925" stroke-width="1.5" stroke-linecap="round" stroke-linejoin="round"/>
</svg>
