<svg width="22" height="22" viewBox="0 0 22 22" fill="none" xmlns="http://www.w3.org/2000/svg">
<path d="M8 21H14C19 21 21 19 21 14V8C21 3 19 1 14 1H8C3 1 1 3 1 8V14C1 19 3 21 8 21Z" fill="#FFEBA5" stroke="#181925" stroke-width="1.5" stroke-linecap="round" stroke-linejoin="round"/>
<path d="M6 7.25C7 8.25 8.63 8.25 9.64 7.25" stroke="#181925" stroke-width="1.5" stroke-miterlimit="10" stroke-linecap="round" stroke-linejoin="round"/>
<path d="M12.3604 7.25C13.3604 8.25 14.9904 8.25 16.0004 7.25" stroke="#181925" stroke-width="1.5" stroke-miterlimit="10" stroke-linecap="round" stroke-linejoin="round"/>
<path d="M7.4 12H14.6C15.1 12 15.5 12.4 15.5 12.9C15.5 15.39 13.49 17.4 11 17.4C8.51 17.4 6.5 15.39 6.5 12.9C6.5 12.4 6.9 12 7.4 12Z" stroke="#181925" stroke-width="1.5" stroke-miterlimit="10" stroke-linecap="round" stroke-linejoin="round"/>
</svg>
