<svg width="24" height="25" viewBox="0 0 24 25" fill="none" xmlns="http://www.w3.org/2000/svg">
<path d="M7.75 7.5C7.75 5.15279 9.65279 3.25 12 3.25C14.3472 3.25 16.25 5.15279 16.25 7.5C16.25 9.84721 14.3472 11.75 12 11.75C9.65279 11.75 7.75 9.84721 7.75 7.5Z" stroke="#181925" stroke-width="1.5"/>
<path d="M5.1158 17.5339C6.2472 15.6005 8.41216 14.25 12 14.25C15.5878 14.25 17.7528 15.6005 18.8842 17.5339C19.5034 18.5919 19.2803 19.679 18.6278 20.4703C17.9882 21.2461 16.9355 21.75 15.832 21.75H8.16796C7.06449 21.75 6.0118 21.2461 5.37218 20.4703C4.71972 19.679 4.49661 18.5919 5.1158 17.5339Z" stroke="#181925" stroke-width="1.5"/>
</svg>
